<svg width="145" height="183" viewBox="0 0 145 183" fill="none" xmlns="http://www.w3.org/2000/svg">
<rect x="0.5" y="0.5" width="144" height="182" fill="#4F94CD" stroke="#F2F2F2"/>
<path d="M88.9375 112.797V32.25H103.938V112.797C103.938 120.297 102.401 126.625 99.3281 131.781C96.2552 136.938 92.0104 140.87 86.5938 143.578C81.2292 146.234 75.0573 147.562 68.0781 147.562C61.099 147.562 54.901 146.365 49.4844 143.969C44.0677 141.573 39.8229 137.927 36.75 133.031C33.6771 128.135 32.1406 121.964 32.1406 114.516H47.2188C47.2188 119.307 48.1042 123.24 49.875 126.312C51.6458 129.385 54.0938 131.651 57.2188 133.109C60.3958 134.568 64.0156 135.297 68.0781 135.297C72.0365 135.297 75.5781 134.464 78.7031 132.797C81.8802 131.078 84.3802 128.552 86.2031 125.219C88.026 121.833 88.9375 117.693 88.9375 112.797Z" fill="white"/>
</svg>
