<svg width="176" height="183" viewBox="0 0 176 183" fill="none" xmlns="http://www.w3.org/2000/svg">
<rect x="0.5" y="0.5" width="175" height="182" fill="#EF6D58" stroke="#F2F2F2"/>
<path d="M104.938 112.797V32.25H119.938V112.797C119.938 120.297 118.401 126.625 115.328 131.781C112.255 136.938 108.01 140.87 102.594 143.578C97.2292 146.234 91.0573 147.562 84.0781 147.562C77.099 147.562 70.901 146.365 65.4844 143.969C60.0677 141.573 55.8229 137.927 52.75 133.031C49.6771 128.135 48.1406 121.964 48.1406 114.516H63.2188C63.2188 119.307 64.1042 123.24 65.875 126.312C67.6458 129.385 70.0938 131.651 73.2188 133.109C76.3958 134.568 80.0156 135.297 84.0781 135.297C88.0365 135.297 91.5781 134.464 94.7031 132.797C97.8802 131.078 100.38 128.552 102.203 125.219C104.026 121.833 104.938 117.693 104.938 112.797Z" fill="white"/>
</svg>
